<?xml version="1.0" standalone="no"?>
<!DOCTYPE svg PUBLIC "-//W3C//DTD SVG 20010904//EN"
 "http://www.w3.org/TR/2001/REC-SVG-20010904/DTD/svg10.dtd">
<svg version="1.0" xmlns="http://www.w3.org/2000/svg"
 width="120.000000pt" height="120.000000pt" viewBox="0 0 120.000000 120.000000"
 preserveAspectRatio="xMidYMid meet">
<metadata>
Created by potrace 1.14, written by Peter Selinger 2001-2017
</metadata>
<g transform="translate(0.000000,120.000000) scale(0.100000,-0.100000)"
fill="#000000" stroke="none">
<path d="M0 698 c0 -200 3 -202 256 -203 176 -1 183 0 186 20 2 11 2 30 0 42
-3 22 -6 22 -171 21 -92 -1 -172 2 -178 5 -5 4 -9 51 -8 112 0 58 -2 109 -5
113 -3 4 -22 7 -42 7 l-38 1 0 -118z"/>
<path d="M285 780 c0 -45 -9 -41 118 -42 l67 -1 0 -119 0 -118 40 0 40 0 0
119 0 118 92 -1 92 -1 1 43 1 42 -226 0 -226 0 1 -40z"/>
<path d="M759 738 c-2 -166 4 -194 50 -221 25 -14 58 -17 211 -17 l181 0 -3
42 -3 43 -175 0 -175 0 -2 105 c-1 58 -2 111 -2 118 -1 7 -16 12 -41 12 l-40
0 -1 -82z"/>
<path d="M53 434 c-9 -24 2 -49 21 -49 19 0 29 25 20 49 -6 17 -35 16 -41 0z
m27 -14 c0 -5 -4 -10 -10 -10 -5 0 -10 5 -10 10 0 6 5 10 10 10 6 0 10 -4 10
-10z"/>
<path d="M331 421 c1 -17 3 -20 6 -8 2 9 9 17 14 17 5 0 9 4 9 8 0 5 -7 9 -15
9 -10 0 -15 -9 -14 -26z"/>
<path d="M597 443 c-10 -9 -8 -41 2 -48 5 -3 17 2 26 11 12 12 13 19 4 30 -13
15 -22 18 -32 7z m23 -23 c0 -5 -4 -10 -10 -10 -5 0 -10 5 -10 10 0 6 5 10 10
10 6 0 10 -4 10 -10z"/>
<path d="M869 445 c-12 -11 2 -43 22 -48 16 -4 19 0 19 25 0 16 -4 27 -10 23
-5 -3 -7 -12 -3 -20 3 -8 0 -15 -5 -15 -6 0 -12 9 -14 21 -2 11 -6 18 -9 14z"/>
<path d="M1149 447 c-6 -16 -5 -58 2 -62 5 -4 9 -1 9 4 0 6 7 11 16 11 22 0
14 42 -8 46 -10 1 -18 2 -19 1z m31 -27 c0 -5 -4 -10 -10 -10 -5 0 -10 5 -10
10 0 6 5 10 10 10 6 0 10 -4 10 -10z"/>
</g>
</svg>
