<svg width="69" height="91" fill="none" xmlns="http://www.w3.org/2000/svg"><path d="m6.648 15.732 11.114 4.94a19.751 19.751 0 0 0-3.347 10.976c0 10.868 8.842 19.71 19.71 19.71 10.869 0 19.711-8.842 19.711-19.71a19.76 19.76 0 0 0-3.283-10.878l10.446-4.642v18.703l-2.803 6.31a1.498 1.498 0 0 0 1.371 2.11h5.674a1.5 1.5 0 0 0 1.386-2.075L64 34.85v-20.1a1.5 1.5 0 0 0-1.5-1.5c-.069 0-.134.01-.201.02a1.482 1.482 0 0 0-.408-.28L34.877.986a1.504 1.504 0 0 0-1.219 0L6.648 12.991a1.5 1.5 0 0 0 0 2.742Zm44.189 15.56c0 9.215-7.497 16.71-16.711 16.71-9.214 0-16.71-7.495-16.71-16.71a16.74 16.74 0 0 1 3.141-9.734l13.102 5.823a1.504 1.504 0 0 0 1.218 0l12.888-5.727a16.74 16.74 0 0 1 3.072 9.637Zm11.038 8.959.579-1.302.541 1.302h-1.12ZM34.268 3.642l23.32 10.364-23.32 10.363-23.316-10.364L34.268 3.643Zm.43 50.91C15.851 54.553.516 69.877.5 88.722c-.001.839.661 1.529 1.5 1.529h65.394c.839 0 1.501-.69 1.5-1.53-.016-18.844-15.351-34.169-34.196-34.169ZM3.536 87.251c.786-16.51 14.462-29.699 31.162-29.699 16.699 0 30.375 13.19 31.161 29.699H3.536Z" fill="#000"/></svg>