<svg xmlns="http://www.w3.org/2000/svg" viewBox="0 0 100.75 100.749" style="enable-background:new 0 0 100.75 100.749" xml:space="preserve"><path d="M89.638 31.158H67.835c-.023-.001-.045-.007-.068-.007a1.5 1.5 0 0 0-1.5 1.5v33.195H32.232a1.5 1.5 0 0 0-1.5 1.5v22.713a1.5 1.5 0 0 0 1.5 1.5h57.406a1.5 1.5 0 0 0 1.5-1.5V32.658a1.5 1.5 0 0 0-1.5-1.5zm-1.5 57.401H33.732V68.846h34.035a1.5 1.5 0 0 0 1.5-1.5V34.158h18.871v54.401zM65.469 11.44h.798v1.438a1.5 1.5 0 1 0 3 0V9.94a1.5 1.5 0 0 0-1.5-1.5h-2.298a1.5 1.5 0 1 0 0 3zM13.581 8.44h-3.219a1.5 1.5 0 0 0-1.5 1.5v2.729a1.5 1.5 0 1 0 3 0V11.44h1.719a1.5 1.5 0 1 0 0-3zM10.362 25.838a1.5 1.5 0 0 0 1.5-1.5v-4.851a1.5 1.5 0 1 0-3 0v4.851a1.5 1.5 0 0 0 1.5 1.5zM10.362 36.929a1.5 1.5 0 0 0 1.5-1.5v-4.804a1.5 1.5 0 1 0-3 0v4.804a1.5 1.5 0 0 0 1.5 1.5zM12.771 65.847h-.909v-1.506a1.5 1.5 0 1 0-3 0v3.006a1.5 1.5 0 0 0 1.5 1.5h2.409a1.5 1.5 0 1 0 0-3zM10.362 48.036a1.5 1.5 0 0 0 1.5-1.5v-4.795a1.5 1.5 0 1 0-3 0v4.795a1.5 1.5 0 0 0 1.5 1.5zM10.362 59.152a1.5 1.5 0 0 0 1.5-1.5v-4.799a1.5 1.5 0 1 0-3 0v4.799a1.5 1.5 0 0 0 1.5 1.5zM53.543 11.44h4.854a1.5 1.5 0 1 0 0-3h-4.854a1.5 1.5 0 1 0 0 3zM42.457 11.44h4.795a1.5 1.5 0 1 0 0-3h-4.795a1.5 1.5 0 1 0 0 3zM36.144 11.44a1.5 1.5 0 1 0 0-3h-4.803a1.5 1.5 0 1 0 0 3h4.803zM25.028 8.44h-4.799a1.5 1.5 0 1 0 0 3h4.799a1.5 1.5 0 1 0 0-3zM25.028 65.847h-4.799a1.5 1.5 0 1 0 0 3h4.799a1.5 1.5 0 1 0 0-3zM67.768 18.001a1.5 1.5 0 0 0-1.5 1.5v4.795a1.5 1.5 0 1 0 3 0v-4.795a1.5 1.5 0 0 0-1.5-1.5z"/></svg>