<svg xmlns="http://www.w3.org/2000/svg" viewBox="0 0 100 100" style="enable-background:new 0 0 100 100" xml:space="preserve"><path d="M83.347 16.154H16.653a1.5 1.5 0 0 0-1.5 1.5v28.225a1.5 1.5 0 0 0 1.5 1.5h5.143v34.967a1.5 1.5 0 0 0 1.5 1.5h54.046a1.5 1.5 0 0 0 1.5-1.5V47.379h4.505a1.5 1.5 0 0 0 1.5-1.5V17.654a1.5 1.5 0 0 0-1.5-1.5zm-7.505 64.692H24.796V47.379h16.112c.501 0 .97-.25 1.248-.668l8.163-12.241 8.163 12.241c.278.417.747.668 1.248.668h16.111v33.467zm6.005-36.467H60.533l-8.966-13.445c-.557-.835-1.94-.834-2.496 0l-8.966 13.445H18.153V19.154h63.694v25.225z"/><path d="M57.235 52.381H43.403a1.5 1.5 0 0 0-1.5 1.5v20.754a1.5 1.5 0 0 0 1.5 1.5h13.833a1.5 1.5 0 0 0 1.5-1.5V53.881a1.502 1.502 0 0 0-1.501-1.5zm-1.5 20.754H44.903V55.381h10.833v17.754z"/></svg>