<svg xmlns="http://www.w3.org/2000/svg" viewBox="0 0 100.25 100.25" style="enable-background:new 0 0 100.25 100.25" xml:space="preserve"><path d="M45 8.75a1.5 1.5 0 0 0-1.5-1.5h-30a1.5 1.5 0 0 0-1.5 1.5v63.188c0 8.994 7.317 16.312 16.311 16.312h.354C37.672 88.25 45 80.923 45 71.916V8.75zm-30 19.5h27v28H15v-28zm27-18v15H15v-15h27zm-13.334 75h-.354C20.971 85.25 15 79.278 15 71.938V59.25h27v12.666c0 7.353-5.982 13.334-13.334 13.334zM50.364 69.624a1.497 1.497 0 0 0 2.121-.014l30.253-30.672a1.501 1.501 0 0 0 0-2.106L62.294 16.103c-.564-.572-1.572-.571-2.137 0l-9.808 9.945a1.5 1.5 0 1 0 2.137 2.106l8.74-8.862 18.338 18.591-29.215 29.619a1.5 1.5 0 0 0 .015 2.122zM90.5 57.25h-21a1.5 1.5 0 0 0 0 3H89v27H44.5a1.5 1.5 0 1 0 0 3h46a1.5 1.5 0 0 0 1.5-1.5v-30a1.5 1.5 0 0 0-1.5-1.5z"/><path d="M28.5 67.25c-3.033 0-5.5 2.468-5.5 5.5s2.467 5.5 5.5 5.5 5.5-2.468 5.5-5.5-2.467-5.5-5.5-5.5zm0 8c-1.378 0-2.5-1.121-2.5-2.5s1.122-2.5 2.5-2.5 2.5 1.121 2.5 2.5-1.122 2.5-2.5 2.5z"/></svg>