<svg width="85" height="89" fill="none" xmlns="http://www.w3.org/2000/svg"><path d="M69.88 43.92A1.5 1.5 0 0 0 68.5 43H51.23l10-40.62A1.5 1.5 0 0 0 58.7 1L16.44 43.44A1.5 1.5 0 0 0 17.5 46h17.27l-10 40.62A1.5 1.5 0 0 0 27.3 88l42.26-42.44a1.5 1.5 0 0 0 .32-1.64ZM29 82.09l9.16-37.23A1.499 1.499 0 0 0 36.69 43H21.11L57 6.91l-9.14 37.23A1.5 1.5 0 0 0 49.31 46h15.58L29 82.09ZM64.06 62.94a1.5 1.5 0 0 0-2.12 2.12l12 12a1.5 1.5 0 0 0 2.12-2.12l-12-12ZM21 24.5a1.5 1.5 0 0 0 1.06-2.56l-12-12a1.5 1.5 0 0 0-2.12 2.12l12 12a1.5 1.5 0 0 0 1.06.44Z" fill="#000"/><path d="M61.44 23.56a1.5 1.5 0 0 0 2.12 0l12-12a1.5 1.5 0 0 0-2.12-2.12l-12 12a1.5 1.5 0 0 0 0 2.12ZM20.44 63.44l-12 12a1.5 1.5 0 1 0 2.12 2.12l12-12a1.5 1.5 0 0 0-2.12-2.12ZM11.5 59a2.5 2.5 0 1 0 0-5 2.5 2.5 0 0 0 0 5ZM2.5 52a2.5 2.5 0 1 0 0-5 2.5 2.5 0 0 0 0 5ZM82.5 39a2.5 2.5 0 1 0 0-5 2.5 2.5 0 0 0 0 5ZM24.5 14a2.5 2.5 0 1 0 0-5 2.5 2.5 0 0 0 0 5Z" fill="#000"/></svg>