<svg xmlns="http://www.w3.org/2000/svg" viewBox="0 0 100.75 100.749" style="enable-background:new 0 0 100.75 100.749" xml:space="preserve"><path d="M74.208 53.298H68.07v-5.397a1.5 1.5 0 0 0-1.5-1.5H29.163v-6.059c6.425-.643 11.459-6.081 11.459-12.673V8.786h3.183a1.5 1.5 0 1 0 0-3H11.966a1.5 1.5 0 1 0 0 3h3.182v18.883c0 6.438 4.806 11.762 11.015 12.607v6.125H3.329a1.5 1.5 0 0 0-1.5 1.5v13.795a1.5 1.5 0 0 0 1.5 1.5h15.089L5.577 92.917a1.5 1.5 0 0 0 1.377 2.095h13.387c.599 0 1.14-.355 1.377-.905l13.344-30.884c.004-.009.005-.018.008-.026h31.5a1.5 1.5 0 0 0 1.5-1.5v-5.398h6.138a1.5 1.5 0 0 0 0-3.001zm-56.06-25.629V8.786h19.474v18.883c0 5.369-4.368 9.737-9.737 9.737s-9.737-4.368-9.737-9.737zM4.829 49.401h7.234v10.795H4.829V49.401zm14.526 42.611H9.236l12.438-28.789c.004-.009.005-.018.008-.026h10.122L19.355 92.012zM65.07 60.196H15.063V49.401H65.07v10.795zM81.082 50.956c.384 0 .768-.146 1.061-.439l9.45-9.45a1.5 1.5 0 1 0-2.121-2.121l-9.45 9.45a1.5 1.5 0 0 0 1.06 2.56zM97.466 53.298H84.102a1.5 1.5 0 0 0 0 3h13.364a1.5 1.5 0 0 0 0-3zM82.143 59.079a1.5 1.5 0 1 0-2.121 2.121l9.45 9.45c.293.293.677.439 1.061.439s.768-.146 1.061-.439a1.5 1.5 0 0 0 0-2.121l-9.451-9.45z"/></svg>