<svg width="62" height="92" fill="none" xmlns="http://www.w3.org/2000/svg"><path d="M30.996.953C14.148.953.441 14.66.441 31.508c0 15.604 11.314 28.861 25.757 30.183.865.08 2.038.123 3.298.14v27.714a1.5 1.5 0 1 0 3 0V61.816a61.638 61.638 0 0 0 3.483-.156c14.344-1.23 25.58-14.474 25.58-30.15C61.56 14.66 47.85.952 30.996.952Zm4.732 57.717a57.34 57.34 0 0 1-3.232.146v-6.112l11.876-13.152a1.5 1.5 0 0 0-2.227-2.01l-9.649 10.685v-21.87a1.5 1.5 0 1 0-3 0V58.83c-1.168-.015-2.245-.055-3.02-.127h-.002C13.558 57.523 3.442 45.577 3.442 31.508c0-15.194 12.361-27.555 27.555-27.555 15.198 0 27.563 12.361 27.563 27.555 0 14.133-10.03 26.064-22.832 27.162Z" fill="#000"/></svg>