<svg width="80" height="84" fill="none" xmlns="http://www.w3.org/2000/svg"><path d="M33 1.75a1.5 1.5 0 0 0-1.5-1.5h-30A1.5 1.5 0 0 0 0 1.75v63.188C0 73.932 7.317 81.25 16.311 81.25h.354C25.672 81.25 33 73.923 33 64.916V1.75ZM3 21.25h27v28H3v-28Zm27-18v15H3v-15h27Zm-13.334 75h-.354C8.971 78.25 3 72.278 3 64.938V52.25h27v12.666c0 7.353-5.982 13.334-13.334 13.334ZM38.363 62.624a1.497 1.497 0 0 0 2.121-.014l30.253-30.672a1.501 1.501 0 0 0 0-2.106L50.293 9.102c-.564-.571-1.572-.57-2.137 0l-9.808 9.946a1.5 1.5 0 1 0 2.137 2.106l8.74-8.862 18.338 18.59-29.215 29.62a1.5 1.5 0 0 0 .015 2.122ZM78.5 50.25h-21a1.5 1.5 0 0 0 0 3H77v27H32.5a1.5 1.5 0 1 0 0 3h46a1.5 1.5 0 0 0 1.5-1.5v-30a1.5 1.5 0 0 0-1.5-1.5Z" fill="#000"/><path d="M16.5 60.25a5.506 5.506 0 0 0-5.5 5.5c0 3.032 2.467 5.5 5.5 5.5s5.5-2.468 5.5-5.5-2.467-5.5-5.5-5.5Zm0 8a2.503 2.503 0 0 1-2.5-2.5c0-1.379 1.122-2.5 2.5-2.5s2.5 1.121 2.5 2.5-1.122 2.5-2.5 2.5Z" fill="#000"/></svg>