<svg width="69" height="80" fill="none" xmlns="http://www.w3.org/2000/svg"><path d="M68.06 48.94 49.84 30.72 25.63 6.51l4-4A1.5 1.5 0 0 0 28.52 0h-27A1.5 1.5 0 0 0 0 1.5v27a1.5 1.5 0 0 0 2.56 1.06L7.11 25l24.22 24.24a1.5 1.5 0 0 0 2.12 0l15.33-15.33 17.16 17.15a1.5 1.5 0 0 0 2.12-2.12ZM3 3h21.9L3 24.9V3Zm29.39 43.06L9.24 22.91 23.51 8.63l23.15 23.15-14.27 14.28ZM46.56 54.44a1.502 1.502 0 1 0-2.13 2.12L58.9 71.09a3.43 3.43 0 1 1-4.85 4.85 1.5 1.5 0 1 0-2.12 2.12A6.43 6.43 0 0 0 61 69L46.56 54.44Z" fill="#000"/><path d="M56.5 57a1.5 1.5 0 0 0 1.06-2.56l-9-9a1.5 1.5 0 0 0-2.12 2.12l9 9a1.5 1.5 0 0 0 1.06.44Z" fill="#000"/></svg>