<svg width="70" height="93" fill="none" xmlns="http://www.w3.org/2000/svg"><path d="M56.07 36.27 35.61 21.91a1.5 1.5 0 0 0-1.74 0L13.92 36.28A1.5 1.5 0 0 0 14.8 39H18v27.5a1.5 1.5 0 0 0 1.5 1.5h31a1.5 1.5 0 0 0 1.5-1.5V39h3.21a1.5 1.5 0 0 0 .86-2.73ZM49 37.5V65H21V37.5a1.5 1.5 0 0 0-1.5-1.5h-.05l15.31-11 15.7 11A1.5 1.5 0 0 0 49 37.5Z" fill="#000"/><path d="M28 42.5v12a1.5 1.5 0 0 0 1.5 1.5h12a1.5 1.5 0 0 0 1.5-1.5v-12a1.5 1.5 0 0 0-1.5-1.5h-12a1.5 1.5 0 0 0-1.5 1.5Zm3 1.5h9v9h-9v-9Z" fill="#000"/><path d="M69.26 18.57a1.498 1.498 0 0 0-.99-1.38 1.52 1.52 0 0 0-.59-.09C42.91 18.51 36.93 1.74 36.69 1a1.5 1.5 0 0 0-1.42-1h-.54a1.51 1.51 0 0 0-1.42 1c-.24.71-6.24 17.49-31 16.09a1.502 1.502 0 0 0-1.58 1.46c0 .89-.53 21.93 0 29.16C1.87 63 6.63 80.4 33.32 92.86c.212.1.445.147.68.14h2c.217 0 .432-.048.63-.14C63.37 80.4 68.13 63 69.26 47.73c.53-7.23.02-28.27 0-29.16Zm-3 28.93C65.2 61.9 60.73 78.2 35.71 90h-1.42C9.29 78.2 4.8 61.9 3.73 47.51c-.44-6-.14-22.26 0-27.33h1.45c19 0 27.12-10.75 29.85-15.74 2.79 5.11 11.2 16.27 31.3 15.72.08 5.08.38 21.37-.06 27.34h-.01Z" fill="#000"/></svg>