<svg xmlns="http://www.w3.org/2000/svg" viewBox="0 0 100.25 100.25" style="enable-background:new 0 0 100.25 100.25" xml:space="preserve"><path d="M75.994 10.338c-6.257-.556-12.242 1.465-16.847 5.682A22.06 22.06 0 0 0 52 32.25v21H20v-17h10.859a1.5 1.5 0 0 0 1.476-1.767l-3.978-22a1.5 1.5 0 0 0-1.476-1.233H9.977a1.5 1.5 0 0 0-1.476 1.233l-3.977 22A1.502 1.502 0 0 0 6 36.25h11v17H6.5a1.5 1.5 0 0 0-1.5 1.5v36a1.5 1.5 0 0 0 1.5 1.5h12a1.5 1.5 0 0 0 1.5-1.5v-17.5h32v17.5a1.5 1.5 0 0 0 1.5 1.5h12a1.5 1.5 0 0 0 1.5-1.5v-17.5h14v17.5a1.5 1.5 0 0 0 1.5 1.5h12a1.5 1.5 0 0 0 1.5-1.5V32.713c0-11.557-8.788-21.385-20.006-22.375zM7.795 33.25l3.435-19h14.398l3.436 19H7.795zM64 89.25h-9v-17.5a1.5 1.5 0 0 0-1.5-1.5h-35a1.5 1.5 0 0 0-1.5 1.5v17.5H8v-33h56v33zm29 0h-9v-17.5a1.5 1.5 0 0 0-1.5-1.5H67v-15.5a1.5 1.5 0 0 0-1.5-1.5H55v-21c0-5.316 2.25-10.425 6.173-14.017 3.978-3.642 9.148-5.383 14.558-4.906C85.414 14.181 93 22.696 93 32.713V89.25z"/></svg>