<svg xmlns="http://www.w3.org/2000/svg" viewBox="0 0 100.353 100.353" style="enable-background:new 0 0 100.353 100.353" xml:space="preserve"><path d="M69.138 19.833c-6.545-1.428-13.449 4.608-15.386 13.458a1.499 1.499 0 1 0 2.93.641c1.584-7.234 6.883-12.243 11.817-11.168a1.493 1.493 0 0 0 1.785-1.146 1.5 1.5 0 0 0-1.146-1.785z"/><path d="M77.745 12.101c-8.251-3.826-18.411-.422-25.573 7.663C48.345 8.946 39.498 1.892 30.277 2.701 18.521 3.738 10.04 16.926 11.371 32.099c1.085 12.3 8.094 22.495 17.213 25.255l.78 8.872a1.5 1.5 0 0 0 1.625 1.362l3.13-.275c-.798 2.711-1.84 8.071.684 12.355 2.391 4.072.707 9.235.073 11.18-.108.332-.19.59-.234.76a1.5 1.5 0 1 0 2.908.738c.032-.128.097-.32.178-.568.749-2.295 2.736-8.392-.339-13.631-2.369-4.022-.512-9.768-.02-11.119l3.54-.311a1.5 1.5 0 0 0 1.363-1.625l-.78-8.874a18.653 18.653 0 0 0 4.073-2.844c.892 1.961 2.038 3.745 3.464 5.261l-3.744 8.079a1.5 1.5 0 0 0 .73 1.992l2.803 1.299c-.688 1.91-2.686 8.484.297 13.552 2.39 4.071.707 9.232.073 11.176-.108.331-.19.589-.233.759a1.5 1.5 0 1 0 2.907.738c.032-.127.097-.319.178-.567.748-2.294 2.736-8.388-.339-13.626-2.198-3.734-.759-8.948-.146-10.763l3.487 1.616a1.5 1.5 0 0 0 1.991-.729l3.752-8.078c9.501.522 19.574-6.722 24.766-17.914 6.402-13.821 2.901-29.104-7.806-34.068zM39.311 53.93a1.5 1.5 0 0 0-.899 1.508l.74 8.422-6.931.609-.741-8.422a1.5 1.5 0 0 0-1.15-1.328c-8.255-1.942-14.972-11.566-15.971-22.883C13.172 18.311 20.432 6.581 30.541 5.69c8.329-.732 16.387 6.348 19.385 16.908a35.248 35.248 0 0 0-3.225 5.56c-3.493 7.528-4.178 15.56-2.277 22.129-1.537 1.602-3.249 2.838-5.113 3.643zm43.518-9.022c-4.777 10.298-14.375 17.075-22.793 16.105a1.494 1.494 0 0 0-1.531.858l-3.562 7.667-6.306-2.924 3.555-7.669a1.502 1.502 0 0 0-.336-1.726c-6.193-5.8-7.217-17.491-2.435-27.799a32.403 32.403 0 0 1 3.24-5.502c.083-.087.156-.182.215-.286 6.332-8.451 15.975-12.348 23.607-8.81 9.206 4.269 12.053 17.766 6.346 30.086z"/></svg>