<svg width="91" height="95" fill="none" xmlns="http://www.w3.org/2000/svg"><path d="M34.5 69.893H3.414c.783-14.982 13.219-26.93 28.393-26.93 4.31 0 8.449.939 12.303 2.792a1.5 1.5 0 1 0 1.3-2.704 31.147 31.147 0 0 0-13.603-3.088c-17.332 0-31.432 14.1-31.432 31.43a1.5 1.5 0 0 0 1.5 1.5H34.5a1.5 1.5 0 1 0 0-3Zm-3.219-32.911c10.021 0 18.174-8.152 18.174-18.171C49.455 8.79 41.302.64 31.281.64c-10.017 0-18.166 8.15-18.166 18.17 0 10.019 8.15 18.17 18.166 18.17Zm0-33.341c8.367 0 15.174 6.805 15.174 15.17 0 8.366-6.807 15.17-15.174 15.17-8.363 0-15.166-6.805-15.166-15.17S22.918 3.64 31.281 3.64Z" fill="#000"/><path d="M89.5 53.893H82v-10.5a1.5 1.5 0 0 0-1.5-1.5h-8a1.5 1.5 0 0 0-1.5 1.5v10.5H42.5a1.5 1.5 0 0 0-1.5 1.5v38a1.5 1.5 0 0 0 1.5 1.5h47a1.5 1.5 0 0 0 1.5-1.5v-38a1.5 1.5 0 0 0-1.5-1.5Zm-15.5-9h5v19h-5v-19Zm-3 12v8.5a1.5 1.5 0 0 0 1.5 1.5h8a1.5 1.5 0 0 0 1.5-1.5v-8.5h6v24H44v-24h27Zm-27 35v-8h44v8H44Z" fill="#000"/></svg>