<svg width="91" height="96" fill="none" xmlns="http://www.w3.org/2000/svg"><path d="m90.373 45.394-3.07-6.951a1.497 1.497 0 0 0-2.01-.751l-8.146 3.834a1.5 1.5 0 1 0 1.278 2.714l4.312-2.03-11.321 26.625-6.43-11.601a1.524 1.524 0 0 0-1.372-.772 1.5 1.5 0 0 0-1.306.879l-9.66 21.282-5.8-9.482a1.5 1.5 0 0 0-2.633.137l-11.53 24.156a1.5 1.5 0 0 0 2.708 1.293l10.339-21.661 5.835 9.537a1.5 1.5 0 0 0 2.645-.163l9.596-21.142 6.474 11.68a1.5 1.5 0 0 0 2.692-.14l12.87-30.27 1.785 4.039a1.5 1.5 0 0 0 2.744-1.213Zm-58.414-8.032c10.194 0 18.488-8.292 18.488-18.485C50.447 8.685 42.153.393 31.959.393c-10.19 0-18.48 8.292-18.48 18.484 0 10.193 8.29 18.485 18.48 18.485Zm0-33.97c8.54 0 15.488 6.946 15.488 15.484 0 8.539-6.948 15.485-15.488 15.485-8.536 0-15.48-6.947-15.48-15.485 0-8.537 6.945-15.484 15.48-15.484Zm1.042 72a1.5 1.5 0 0 0-1.5-1.5H3.09c.785-16.098 14.128-28.954 30.417-28.954a30.39 30.39 0 0 1 20.38 7.824 1.5 1.5 0 1 0 2.008-2.228 33.387 33.387 0 0 0-22.388-8.595C15.062 41.939.055 56.946.055 75.393a1.5 1.5 0 0 0 1.5 1.5h29.947A1.5 1.5 0 0 0 33 75.392Z" fill="#000"/></svg>